<svg xmlns="http://www.w3.org/2000/svg" width="35" height="35"><title>A0A76D16-5FD7-4A27-ACC1-8D62152B3979</title><desc>Created with sketchtool.</desc><g fill="none" opacity=".694"><g><g><g transform="translate(-1186 -93) translate(1186 93)"><rect width="35" height="35" fill="#fff" rx="17.5"/><path fill="#141414" fill-rule="nonzero" d="M25.34 12.43c-.57.27-1.2.45-1.84.53.66-.4 1.17-1.07 1.4-1.85-.6.4-1.3.67-2.03.82-.6-.65-1.43-1.06-2.35-1.06-1.78 0-3.22 1.5-3.22 3.35 0 .28.03.53.08.78-2.67-.14-5.05-1.48-6.63-3.5-.28.5-.44 1.07-.44 1.68 0 1.16.58 2.2 1.44 2.8-.52-.03-1.02-.18-1.45-.43 0 0 0 .03 0 .04 0 1.63 1.1 2.98 2.57 3.3-.27.07-.56.1-.85.1-.2 0-.4 0-.6-.05.4 1.33 1.6 2.3 3 2.32-1.1.9-2.5 1.44-4 1.44-.26 0-.5-.02-.76-.05 1.42.95 3.1 1.5 4.93 1.5 5.9 0 9.15-5.1 9.15-9.53 0-.14 0-.3 0-.43.62-.47 1.16-1.06 1.6-1.74z"/></g></g></g></g></svg>