<svg xmlns="http://www.w3.org/2000/svg" width="35" height="35"><title>49A5AE34-D6B3-43A7-B8D0-D5E01021888F</title><desc>Created with sketchtool.</desc><g fill="none" opacity=".694"><g><g><g transform="translate(0 0)"><rect width="35" height="35" fill="#fff" rx="17.5"/><path fill="#141414" fill-rule="nonzero" d="M21.16 8.45h-7.32c-2.97 0-5.4 2.42-5.4 5.4v7.3c0 2.98 2.43 5.4 5.4 5.4h7.32c2.97 0 5.4-2.42 5.4-5.4v-7.3c0-2.98-2.43-5.4-5.4-5.4zm3.57 12.7c0 1.98-1.6 3.58-3.57 3.58h-7.32c-1.97 0-3.57-1.6-3.57-3.57v-7.32c0-1.97 1.6-3.57 3.57-3.57h7.32c1.97 0 3.57 1.6 3.57 3.57v7.32zM21.16 8.45h-7.32c-2.97 0-5.4 2.42-5.4 5.4v7.3c0 2.98 2.43 5.4 5.4 5.4h7.32c2.97 0 5.4-2.42 5.4-5.4v-7.3c0-2.98-2.43-5.4-5.4-5.4zm3.57 12.7c0 1.98-1.6 3.58-3.57 3.58h-7.32c-1.97 0-3.57-1.6-3.57-3.57v-7.32c0-1.97 1.6-3.57 3.57-3.57h7.32c1.97 0 3.57 1.6 3.57 3.57v7.32z"/><path fill="#141414" fill-rule="nonzero" d="M17.5 13.28c-2.33 0-4.22 1.9-4.22 4.22 0 2.33 1.9 4.22 4.22 4.22 2.33 0 4.22-1.9 4.22-4.22 0-2.33-1.9-4.22-4.22-4.22zm0 6.8c-1.43 0-2.58-1.15-2.58-2.58 0-1.43 1.15-2.58 2.58-2.58 1.43 0 2.58 1.15 2.58 2.58 0 1.43-1.15 2.58-2.58 2.58z"/></g></g></g></g></svg>