<svg xmlns="http://www.w3.org/2000/svg" width="12" height="12" xmlns:xlink="http://www.w3.org/1999/xlink"><defs><path id="a" d="M282.02 19.26c2.04 0 3.7 1.6 3.7 3.6a3.65 3.65 0 0 1-3.7 3.58c-2.05 0-3.7-1.6-3.7-3.6a3.65 3.65 0 0 1 3.7-3.58zm6.8 9.67l-2.96-2.97a4.73 4.73 0 0 0 1.18-3.12 4.94 4.94 0 0 0-5.02-4.84 4.94 4.94 0 0 0-5.02 4.84 4.94 4.94 0 0 0 5.02 4.85c1.04 0 2.03-.3 2.87-.9l2.97 3c.13.13.3.2.48.2.17 0 .33-.06.45-.18a.62.62 0 0 0 .02-.9z"/></defs><use xlink:href="#a" transform="translate(-277 -18)"/></svg>