<svg xmlns="http://www.w3.org/2000/svg" width="14" height="14" xmlns:xlink="http://www.w3.org/1999/xlink"><defs><path id="a" d="M285.85 72.47a4.26 4.26 0 0 1 4.33 4.18c0 2.3-1.94 4.18-4.33 4.18a4.26 4.26 0 0 1-4.32-4.18c0-2.3 1.94-4.18 4.32-4.18zm7.94 11.28l-3.46-3.46a5.52 5.52 0 0 0 1.37-3.65 5.76 5.76 0 0 0-5.85-5.65 5.76 5.76 0 0 0-5.85 5.65 5.76 5.76 0 0 0 5.85 5.65c1.22 0 2.37-.35 3.36-1.02l3.5 3.5c.13.14.33.22.54.22.2 0 .38-.07.53-.2.3-.3.3-.76.02-1.05z"/></defs><use xlink:href="#a" opacity=".5" transform="translate(-280 -71)"/></svg>